<?xml version="1.0" standalone="no"?>
<!DOCTYPE svg PUBLIC "-//W3C//DTD SVG 20010904//EN"
 "http://www.w3.org/TR/2001/REC-SVG-20010904/DTD/svg10.dtd">
<svg version="1.0" xmlns="http://www.w3.org/2000/svg"
 width="412.000000pt" height="412.000000pt" viewBox="0 0 412.000000 412.000000"
 preserveAspectRatio="xMidYMid meet">
<metadata>
Created by potrace 1.11, written by Peter Selinger 2001-2013
</metadata>
<g transform="translate(0.000000,412.000000) scale(0.100000,-0.100000)"
fill="#000000" stroke="none">
<path d="M2189 4046 c-2 -2 -38 -7 -79 -9 -41 -3 -110 -17 -154 -31 -43 -14
-85 -26 -92 -26 -8 0 -33 -13 -56 -30 -22 -16 -45 -30 -51 -30 -17 0 -101 -44
-134 -70 -17 -14 -62 -47 -99 -75 -73 -55 -204 -176 -204 -189 0 -5 -12 -23
-27 -42 -113 -137 -186 -273 -239 -449 -23 -73 -27 -335 -6 -372 7 -13 14 -40
16 -60 4 -39 69 -193 82 -193 4 0 4 49 1 108 -3 69 -1 132 7 176 13 65 33 97
47 74 4 -7 14 -6 30 3 23 12 23 12 4 19 -16 6 -17 9 -5 13 34 13 55 12 55 -3
0 -8 -4 -15 -10 -15 -36 -1 -47 -42 -12 -47 12 -2 21 -9 19 -16 -1 -7 -3 -39
-4 -71 -1 -43 3 -63 15 -76 15 -14 21 -29 15 -37 -1 -2 4 -13 10 -24 8 -16 8
-29 -1 -53 -15 -41 -35 -39 -43 4 -11 62 -28 55 -58 -27 -13 -37 -17 -76 -17
-167 1 -66 -2 -122 -7 -125 -4 -2 -7 -65 -7 -139 0 -80 -3 -133 -9 -130 -5 4
-6 1 -2 -6 4 -6 12 -9 17 -6 5 4 9 -5 9 -19 0 -14 4 -26 10 -26 5 0 12 -17 16
-37 4 -21 11 -41 17 -44 5 -4 12 -31 15 -60 2 -30 9 -59 14 -66 5 -7 5 -14 -2
-18 -5 -3 -10 -14 -9 -23 0 -14 2 -14 6 -2 7 17 43 -120 43 -165 0 -17 7 -41
16 -53 8 -12 12 -22 8 -22 -5 0 -3 -5 4 -12 7 -7 12 -18 12 -26 0 -7 16 -28
35 -46 19 -19 35 -43 35 -55 0 -14 4 -20 12 -15 8 5 9 2 5 -9 -3 -10 -2 -17 4
-17 5 0 17 -17 26 -37 8 -21 19 -41 25 -44 5 -3 10 -24 11 -47 1 -27 6 -42 14
-42 7 0 13 -4 13 -9 0 -5 7 -17 16 -25 8 -9 11 -16 5 -16 -5 0 -40 29 -76 65
l-66 64 3 -64 c1 -36 7 -65 11 -65 5 0 5 -6 -1 -12 -9 -12 1 -135 13 -146 3
-3 0 -11 -6 -19 -8 -8 -8 -13 -1 -13 6 0 1 -11 -11 -25 -23 -25 -38 -16 -17
10 23 28 -15 17 -70 -20 -42 -28 -61 -35 -102 -35 -37 0 -64 -8 -104 -30 -67
-36 -247 -149 -334 -208 -64 -44 -97 -63 -250 -145 -41 -22 -86 -48 -100 -57
-28 -19 -317 -160 -367 -180 -18 -7 -31 -16 -28 -19 2 -4 -6 -7 -18 -7 -19 1
-22 -5 -25 -41 l-3 -43 2060 0 2061 0 0 118 0 118 -72 39 c-281 152 -653 339
-734 370 -37 14 -78 25 -91 25 -15 0 -43 16 -68 38 -57 50 -153 84 -202 70
-19 -5 -36 -8 -37 -6 -1 2 1 46 5 98 4 52 8 141 8 196 l1 102 55 108 c50 101
93 242 80 265 -3 4 -2 9 3 11 11 5 43 148 36 160 -4 6 -2 8 4 4 7 -4 13 10 17
39 4 25 25 74 46 110 66 109 129 370 129 536 0 30 -5 60 -12 67 -17 17 -49 15
-76 -4 -25 -17 -29 -9 -7 16 19 22 19 21 55 220 16 92 22 286 9 345 -10 50
-26 116 -33 145 -3 8 -21 47 -40 85 -20 39 -36 75 -36 81 0 6 -15 31 -33 55
-18 24 -36 51 -39 60 -4 9 -28 45 -55 80 -43 57 -79 94 -254 264 -25 25 -52
45 -59 45 -7 0 -27 10 -44 23 -52 39 -99 63 -159 82 -31 10 -57 21 -57 25 0 4
-17 11 -37 15 -21 4 -51 13 -68 20 -30 13 -157 29 -166 21z m-29 -707 c0 -5
18 -16 40 -25 22 -9 40 -22 40 -30 0 -7 9 -19 19 -26 20 -14 20 -14 0 -26 -11
-7 -19 -8 -19 -2 0 5 -8 10 -17 10 -15 0 -15 -1 2 -13 10 -8 15 -19 11 -25 -4
-7 -1 -12 9 -12 9 0 26 -10 39 -23 13 -13 39 -31 59 -40 37 -18 53 -42 34 -51
-7 -4 -2 -4 11 -2 19 4 21 2 11 -10 -9 -11 -9 -18 -1 -26 9 -9 12 -8 12 5 0
10 8 17 20 17 30 0 24 -25 -15 -63 -19 -19 -35 -43 -35 -53 0 -16 2 -17 10 -4
7 11 10 11 10 2 0 -8 5 -10 12 -6 8 5 9 2 3 -12 -10 -24 -10 -43 -1 -69 6 -16
6 -17 -3 -5 -8 12 -16 7 -46 -28 -20 -23 -41 -40 -45 -37 -5 3 -29 -14 -52
-37 -34 -34 -47 -56 -58 -101 -7 -31 -19 -62 -27 -68 -7 -6 -10 -15 -7 -21 9
-15 -16 -38 -42 -38 -13 0 -24 4 -24 8 0 4 -18 19 -40 32 -27 17 -40 32 -40
48 0 26 -17 62 -60 125 -36 54 -100 91 -141 82 -25 -6 -29 -4 -29 14 0 18 5
21 28 16 l27 -5 -27 11 c-34 13 -37 32 -5 27 16 -2 22 2 23 17 3 38 4 40 13
26 7 -11 10 -9 16 8 5 18 9 20 21 10 11 -9 14 -8 14 4 0 8 -8 18 -17 21 -14 6
-15 9 -4 15 21 13 4 29 -37 37 -20 4 -47 15 -60 25 -13 10 -29 16 -36 13 -8
-3 -16 1 -18 8 -4 9 5 14 28 15 19 2 34 -2 34 -7 0 -6 4 -10 9 -10 5 0 7 8 4
18 -3 14 -11 18 -29 14 -19 -3 -24 0 -24 16 0 12 4 23 8 26 4 2 9 28 10 57 3
63 14 79 42 61 17 -10 20 -10 20 2 0 12 12 14 54 12 42 -3 57 0 69 15 9 10 32
21 51 25 20 3 36 12 36 19 0 8 8 15 18 17 33 8 92 5 92 -3z m84 -18 c4 -5 -3
-7 -14 -4 -23 6 -26 13 -6 13 8 0 17 -4 20 -9z m-964 -421 c0 -5 -4 -10 -10
-10 -5 0 -10 5 -10 10 0 6 5 10 10 10 6 0 10 -4 10 -10z m1160 -33 c0 -4 -6
-2 -14 5 -8 7 -12 17 -9 22 5 8 23 -12 23 -27z m-717 -8 c-5 -28 -4 -30 18
-27 13 1 24 10 24 18 0 8 -6 14 -12 13 -14 -3 -17 9 -6 20 3 4 14 -1 23 -11
15 -15 15 -20 3 -38 -12 -19 -10 -25 26 -63 21 -22 44 -41 50 -41 6 0 11 -7
11 -15 0 -9 7 -18 15 -21 8 -4 13 -9 10 -13 -2 -4 7 -19 21 -34 13 -14 24 -30
24 -34 0 -4 9 -19 20 -33 25 -32 27 -88 3 -97 -10 -4 -19 -1 -21 6 -3 9 -7 10
-11 3 -4 -8 -17 -5 -36 8 -17 11 -24 20 -17 20 7 0 10 5 6 11 -3 6 8 3 25 -6
l31 -16 -2 31 c-1 16 -6 30 -10 30 -4 0 -8 5 -8 11 0 19 -26 37 -63 43 -20 3
-56 10 -79 16 -62 14 -154 12 -223 -5 -77 -18 -88 -18 -81 0 3 9 0 15 -8 15
-17 0 -28 27 -21 51 3 9 1 20 -5 24 -18 11 -11 47 10 52 12 3 20 13 19 22 -3
28 1 41 11 41 6 0 10 -9 10 -20 0 -22 15 -27 23 -7 4 9 8 9 15 -2 8 -11 14 -7
27 19 13 25 19 30 26 19 6 -11 11 -11 20 -2 9 9 18 9 32 2 14 -8 18 -8 13 0
-4 6 -4 11 -1 11 4 0 16 -5 27 -11 16 -9 19 -8 13 3 -6 10 -5 11 6 1 19 -18
29 -16 29 5 0 17 8 32 16 32 2 0 1 -14 -3 -31z m983 -115 c28 -17 44 -33 44
-46 0 -10 -4 -17 -9 -14 -5 4 -7 -3 -4 -14 6 -24 10 -23 -127 -20 -65 1 -109
6 -115 13 -6 7 -9 11 -7 10 2 -1 17 14 34 33 18 21 48 39 77 48 61 19 56 20
107 -10z m-1016 -114 c11 -7 4 -10 -25 -9 -31 0 -36 2 -20 9 26 11 28 11 45 0z
m-70 -60 c0 -5 -4 -10 -10 -10 -5 0 -10 5 -10 10 0 6 5 10 10 10 6 0 10 -4 10
-10z m884 -27 c-10 -7 -23 -13 -28 -13 -6 0 -22 -9 -36 -20 -31 -25 -40 -25
-40 -1 0 20 27 48 37 37 3 -3 12 3 20 14 12 16 17 18 39 8 24 -11 25 -13 8
-25z m660 -223 c3 -129 6 -239 6 -245 0 -5 5 -3 10 5 8 13 10 12 10 -3 0 -10
-6 -25 -14 -32 -12 -12 -15 11 -21 158 -3 95 -8 210 -10 257 -3 73 0 109 10
98 1 -2 5 -109 9 -238z m-1509 211 c3 -5 1 -12 -5 -16 -5 -3 -10 1 -10 9 0 18
6 21 15 7z m1015 -1 c0 -5 -4 -10 -10 -10 -5 0 -10 5 -10 10 0 6 5 10 10 10 6
0 10 -4 10 -10z m-92 -32 c6 -17 10 -33 8 -35 -2 -2 -27 -1 -55 3 -35 4 -51
11 -51 21 0 8 6 13 13 10 6 -2 23 4 36 14 32 25 35 24 49 -13z m52 17 c0 -8
-4 -15 -10 -15 -5 0 -10 7 -10 15 0 8 5 15 10 15 6 0 10 -7 10 -15z m-1020
-10 c0 -8 -4 -15 -10 -15 -5 0 -10 7 -10 15 0 8 5 15 10 15 6 0 10 -7 10 -15z
m174 0 c11 -8 28 -15 38 -15 10 0 18 -4 18 -9 0 -10 -98 -26 -106 -18 -7 6 14
57 23 57 5 0 17 -7 27 -15z m-230 -22 c3 -10 9 -24 12 -32 5 -11 -2 -13 -35
-8 -55 7 -61 14 -32 38 29 24 47 24 55 2z m1260 -2 c17 -19 17 -20 -24 -31
-23 -6 -44 -9 -47 -7 -8 8 28 57 42 57 6 0 20 -9 29 -19z m-251 -43 c12 -6 36
-11 52 -10 17 1 37 -2 45 -8 11 -7 2 -8 -30 -5 -32 4 -39 2 -25 -4 20 -10 20
-10 0 -10 -12 -1 -26 4 -33 11 -21 21 -52 17 -52 -6 0 -17 2 -18 10 -6 8 13
10 12 10 -3 0 -10 5 -15 10 -12 6 3 10 2 10 -2 0 -5 20 -14 45 -21 25 -7 45
-16 45 -22 0 -15 -17 -12 -45 6 -14 9 -25 12 -25 6 0 -5 9 -12 20 -15 11 -3
20 -10 20 -16 0 -22 -185 71 -201 101 -9 17 -8 19 8 14 10 -3 24 -2 30 2 21
13 82 13 106 0z m-683 -8 c14 -4 19 -8 13 -9 -7 -1 -13 -8 -13 -16 0 -9 -21
-21 -57 -31 -56 -16 -83 -33 -83 -53 0 -5 -9 -12 -19 -16 -12 -4 -18 -12 -14
-21 3 -8 -1 -14 -11 -14 -19 0 -22 -37 -3 -43 6 -2 2 -2 -10 0 -13 2 -23 -1
-23 -7 0 -5 6 -10 13 -10 22 0 -17 -20 -40 -20 -14 0 -23 -6 -23 -16 0 -31
109 4 180 57 19 15 49 29 66 32 l31 6 -2 -87 c-2 -91 -11 -119 -52 -163 -17
-19 -26 -42 -30 -80 -5 -49 -3 -58 22 -88 21 -24 29 -46 32 -84 2 -31 0 -45
-5 -34 -6 14 -12 6 -26 -36 -12 -35 -27 -60 -45 -70 -14 -9 -43 -32 -63 -52
-21 -20 -38 -30 -38 -23 0 8 -4 6 -11 -4 -5 -10 -18 -18 -28 -18 -10 0 -24
-11 -31 -25 -12 -22 -15 -23 -23 -10 -5 9 -6 27 -3 41 5 19 3 24 -13 24 -11 0
-23 -5 -26 -10 -4 -6 -11 -8 -16 -4 -5 3 -7 9 -4 14 3 5 -4 14 -15 20 -24 13
-26 29 -3 45 15 11 15 18 5 54 -8 24 -19 41 -27 41 -8 0 -14 -5 -13 -11 2 -6
-3 -14 -9 -16 -8 -3 -14 5 -14 19 -3 55 -7 71 -20 79 -12 7 -11 9 1 10 8 1 2
4 -15 8 -17 4 -33 2 -37 -3 -10 -15 -22 0 -14 19 3 9 10 13 16 10 5 -3 10 0
10 8 0 20 -68 39 -93 25 -17 -9 -19 -8 -14 7 4 9 7 32 7 51 0 22 5 34 13 34 8
0 22 9 32 20 14 16 15 22 5 35 -14 17 -5 105 11 105 5 0 9 9 9 20 0 11 4 20 9
20 5 0 12 9 16 20 4 12 19 22 41 26 19 3 34 11 34 16 0 6 7 8 15 4 8 -3 15 -1
15 5 0 6 5 7 10 4 6 -3 10 4 10 17 0 18 -2 20 -10 8 -8 -13 -10 -13 -10 2 0
11 -5 15 -14 12 -16 -6 -30 36 -16 50 12 12 30 16 110 20 66 3 184 21 213 31
17 7 31 45 16 45 -5 0 -9 5 -9 10 0 12 54 12 90 0z m-195 -10 c3 -6 -4 -10
-17 -10 -18 0 -20 2 -8 10 19 12 18 12 25 0z m42 4 c-3 -3 -12 -4 -19 -1 -8 3
-5 6 6 6 11 1 17 -2 13 -5z m947 -113 c3 -4 3 -11 0 -14 -8 -8 -34 3 -34 14 0
11 27 12 34 0z m-921 -48 c-7 -2 -19 -2 -25 0 -7 3 -2 5 12 5 14 0 19 -2 13
-5z m-556 -100 c-3 -10 -5 -4 -5 12 0 17 2 24 5 18 2 -7 2 -21 0 -30z m1333 2
c0 -8 5 -15 10 -15 6 0 10 6 10 13 0 9 2 9 8 -1 5 -8 16 -10 27 -6 14 6 17 4
12 -8 -4 -11 2 -18 19 -22 13 -4 24 -12 24 -19 0 -6 19 -23 41 -37 63 -38 73
-59 60 -120 -6 -28 -11 -67 -11 -87 0 -41 -59 -173 -77 -173 -7 0 -13 5 -13
10 0 6 -9 10 -19 10 -10 0 -36 16 -57 35 -22 19 -43 35 -48 35 -4 0 -6 7 -3
14 4 10 1 13 -9 9 -7 -3 -14 0 -14 7 0 6 -4 9 -9 6 -13 -9 -7 22 7 36 21 21
14 101 -14 154 -24 46 -25 50 -10 75 9 15 16 39 16 54 0 15 4 24 10 20 6 -3
13 1 16 9 8 20 24 21 24 1z m-381 -120 c18 -4 41 -14 51 -22 17 -15 17 -16 -1
-34 -11 -11 -23 -19 -29 -19 -5 0 -10 -4 -10 -10 0 -5 -6 -10 -14 -10 -8 0
-17 -7 -20 -16 -3 -8 -10 -13 -15 -9 -5 3 -12 1 -16 -5 -10 -16 -62 -12 -69 5
-3 8 -13 15 -21 15 -9 0 -13 5 -10 10 8 12 7 12 -52 1 -102 -20 -123 -22 -123
-11 0 6 5 8 10 5 6 -3 10 -2 10 3 0 5 8 12 18 15 9 3 28 12 42 21 63 37 161
78 175 72 8 -3 15 0 15 6 0 7 4 7 13 0 6 -5 27 -13 46 -17z m636 -74 c3 -5 1
-12 -5 -16 -5 -3 -10 1 -10 9 0 18 6 21 15 7z m-814 -134 c3 -4 19 -10 35 -12
16 -2 45 -12 65 -23 24 -12 52 -18 81 -16 l46 3 5 -46 c5 -50 -3 -92 -18 -94
-5 0 -9 -5 -8 -10 9 -30 -110 -37 -128 -7 -13 20 -11 28 7 28 9 0 14 3 12 8
-35 73 -43 82 -67 80 -18 -2 -26 2 -26 14 0 10 -15 33 -33 52 -36 39 -36 64 1
43 12 -6 25 -16 28 -20z m395 8 c-11 -8 -27 -15 -35 -15 -13 1 -12 4 3 15 11
8 27 15 35 15 13 -1 12 -4 -3 -15z m-926 -115 c0 -5 -7 -10 -16 -10 -8 0 -12
5 -9 10 3 6 10 10 16 10 5 0 9 -4 9 -10z m830 -180 c8 -1 -1 -5 -20 -9 -34 -6
-35 -7 -33 -51 2 -36 0 -40 -7 -20 -7 21 -8 22 -10 5 l-1 -20 -9 20 c-5 11 -9
15 -9 9 -1 -12 -24 -12 -51 -2 -28 12 -90 19 -90 11 0 -10 -77 -10 -86 0 -4 4
0 7 9 7 9 0 19 5 23 12 7 11 -2 11 -131 -7 l-40 -5 55 27 c54 28 58 28 220 27
91 -1 172 -2 180 -4z m-10 -57 c0 -5 -5 -15 -10 -23 -8 -12 -10 -11 -10 8 0
12 5 22 10 22 6 0 10 -3 10 -7z m-305 -124 c9 -9 -41 -14 -105 -10 -45 2 -63
9 -56 19 7 11 148 3 161 -9z m421 -11 c3 -4 -18 -8 -45 -8 -29 0 -51 5 -51 10
0 13 89 10 96 -2z m-382 -20 c-6 -10 -4 -10 8 0 12 10 21 10 42 1 20 -10 26
-19 26 -46 0 -18 4 -33 9 -33 5 0 9 11 9 25 0 26 18 55 33 55 5 0 9 -7 9 -15
0 -8 7 -15 16 -15 14 0 14 3 4 15 -10 12 -10 15 4 15 9 0 16 -5 16 -11 0 -7
10 -9 25 -7 17 4 25 1 25 -8 0 -8 5 -14 10 -14 17 0 11 -18 -7 -23 -14 -4 -12
-5 5 -6 12 0 22 4 22 10 0 8 5 8 15 -1 20 -16 19 -32 -3 -58 -29 -33 -66 -42
-177 -42 -90 0 -112 3 -164 26 -66 29 -78 51 -31 60 34 7 63 35 43 41 -19 7
18 43 45 43 16 0 21 -4 16 -12z m173 -359 c26 -10 27 -12 11 -23 -10 -7 -18
-18 -18 -25 0 -6 -5 -11 -12 -11 -6 0 -9 -2 -6 -5 8 -9 38 6 32 16 -3 5 2 9
10 9 24 0 19 -15 -9 -28 -42 -19 -144 -10 -113 9 10 7 9 9 -3 9 -23 0 -71 26
-67 36 2 5 9 9 16 11 8 1 16 4 20 7 9 10 109 7 139 -5z m878 -269 c26 -10 48
-51 42 -79 -2 -11 -7 -7 -17 14 -8 17 -30 37 -47 45 -54 25 -35 42 22 20z"/>
<path d="M2118 3323 c7 -3 16 -2 19 1 4 3 -2 6 -13 5 -11 0 -14 -3 -6 -6z"/>
<path d="M1848 3203 c7 -3 16 -2 19 1 4 3 -2 6 -13 5 -11 0 -14 -3 -6 -6z"/>
<path d="M1450 2670 c8 -5 22 -10 30 -10 13 0 13 1 0 10 -8 5 -22 10 -30 10
-13 0 -13 -1 0 -10z"/>
<path d="M1520 2239 c0 -5 5 -7 10 -4 6 3 10 8 10 11 0 2 -4 4 -10 4 -5 0 -10
-5 -10 -11z"/>
<path d="M1538 2193 c7 -3 16 -2 19 1 4 3 -2 6 -13 5 -11 0 -14 -3 -6 -6z"/>
<path d="M2186 1705 c4 -8 8 -15 10 -15 2 0 4 7 4 15 0 8 -4 15 -10 15 -5 0
-7 -7 -4 -15z"/>
<path d="M2144 1291 c3 -5 15 -7 26 -4 28 7 25 13 -6 13 -14 0 -23 -4 -20 -9z"/>
<path d="M1182 2780 c0 -14 2 -19 5 -12 2 6 2 18 0 25 -3 6 -5 1 -5 -13z"/>
<path d="M1040 2493 c-17 -6 -40 -32 -40 -46 0 -4 4 -6 9 -3 5 3 14 -1 20 -8
10 -12 8 -13 -9 -9 -19 5 -20 3 -10 -21 5 -15 10 -39 10 -53 0 -55 22 -155 31
-142 6 9 9 2 7 -22 -1 -23 4 -43 15 -53 20 -20 22 -31 5 -20 -11 7 -10 1 7
-76 4 -22 47 -102 51 -97 4 3 -8 47 -22 81 -6 15 -4 18 7 12 8 -4 6 -1 -3 7
-28 22 -20 111 8 100 11 -4 14 9 13 68 0 41 -3 68 -6 61 -4 -10 -8 -10 -18 -2
-8 6 -11 18 -8 26 4 10 9 12 18 4 9 -8 14 2 19 42 10 90 8 103 -22 125 -33 24
-61 33 -82 26z m53 -283 c3 -11 1 -18 -4 -14 -5 3 -9 12 -9 20 0 20 7 17 13
-6z"/>
<path d="M1331 1334 c0 -11 3 -14 6 -6 3 7 2 16 -1 19 -3 4 -6 -2 -5 -13z"/>
</g>
</svg>
