<svg xmlns="http://www.w3.org/2000/svg" xmlns:xlink="http://www.w3.org/1999/xlink" id="Capa_1" x="0" y="0" version="1.1" viewBox="0 0 512 512" xml:space="preserve" style="enable-background:new 0 0 512 512"><g><g><path d="M306.613,205.386L293.28,192.05c-20.645-20.646-48.093-32.015-77.289-32.015c-29.195,0-56.643,11.369-77.287,32.015 L32.013,298.739C11.37,319.384,0,346.832,0,376.027s11.369,56.644,32.015,77.289l26.671,26.669 C79.331,500.631,106.778,512,135.973,512c29.196,0,56.645-11.369,77.287-32.014l40.01-40.006 c5.858-5.858,5.859-15.355,0.001-21.213c-5.857-5.859-15.354-5.859-21.213-0.001l-40.011,40.007 C177.07,473.751,157.156,482,135.973,482c-21.182,0-41.096-8.249-56.074-23.228l-26.672-26.669 C38.249,417.123,30,397.209,30,376.027s8.248-41.096,23.227-56.075l106.69-106.689c14.978-14.979,34.892-23.227,56.073-23.227 c21.184,0,41.098,8.249,56.076,23.227l13.332,13.334c5.857,5.858,15.354,5.859,21.213,0.002 C312.469,220.742,312.47,211.244,306.613,205.386z"/></g></g><g><g><path d="M479.986,58.688l-26.671-26.674C432.669,11.369,405.221,0,376.025,0c-29.196,0-56.644,11.369-77.286,32.015l-40.01,40.01 c-5.857,5.858-5.857,15.354,0,21.213c5.857,5.858,15.355,5.858,21.213,0l40.012-40.011C334.93,38.249,354.843,30,376.025,30 c21.183,0,41.099,8.249,56.077,23.227l26.67,26.674C473.75,94.879,482,114.793,482,135.975s-8.25,41.097-23.228,56.075 l-106.69,106.689c-14.977,14.979-34.892,23.228-56.074,23.228s-41.097-8.249-56.076-23.228l-13.336-13.336 c-5.857-5.858-15.355-5.858-21.213,0c-5.858,5.858-5.857,15.355,0,21.213l13.336,13.336 c20.645,20.646,48.094,32.015,77.289,32.015c29.196,0,56.645-11.369,77.287-32.015l106.689-106.689 C500.63,192.618,512,165.17,512,135.975C512,106.78,500.63,79.332,479.986,58.688z"/></g></g></svg>